<?xml version="1.0" encoding="UTF-8"?>
<svg version="1.1" xmlns="http://www.w3.org/2000/svg" width="225" height="225">
<path d="M0 0 C74.25 0 148.5 0 225 0 C225 74.25 225 148.5 225 225 C150.75 225 76.5 225 0 225 C0 150.75 0 76.5 0 0 Z " fill="#000000" transform="translate(0,0)"/>
<path d="M0 0 C1.44064486 0.87850134 2.86215295 1.790259 4.25 2.75 C5.61125 3.5853125 5.61125 3.5853125 7 4.4375 C14.26425188 11.90353666 16.69764089 19.7193946 16.58203125 29.9140625 C15.61570279 41.07799833 10.42403404 49.34901414 2.25 56.75 C-9.64220981 66.61098566 -22.46396666 73.15043771 -38.03515625 73.26171875 C-38.97685165 73.27966995 -39.91854706 73.29762115 -40.88877869 73.31611633 C-43.86330842 73.36981099 -46.83768153 73.40398296 -49.8125 73.4375 C-51.84312057 73.47070919 -53.87372057 73.50520213 -55.90429688 73.54101562 C-60.85275078 73.62551356 -65.80116154 73.69251814 -70.75 73.75 C-69.85394043 74.38921387 -68.95788086 75.02842773 -68.03466797 75.68701172 C-60.96746643 80.73046436 -53.90936377 85.78579073 -46.875 90.875 C-46.07964844 91.44992188 -45.28429687 92.02484375 -44.46484375 92.6171875 C-42.55964226 93.99444159 -40.65469172 95.37204105 -38.75 96.75 C-39.3078769 102.55289781 -40.48953959 107.6310161 -42.40234375 113.125 C-42.66253799 113.89376465 -42.92273224 114.6625293 -43.19081116 115.45458984 C-44.01586808 117.88890551 -44.85101898 120.3195888 -45.6875 122.75 C-46.51883328 125.18090649 -47.34789303 127.612545 -48.17347717 130.04541016 C-48.68511663 131.5515517 -49.20021273 133.05652538 -49.71946716 134.56005859 C-51.31778391 139.24509291 -52.60568222 143.9332441 -53.75 148.75 C-53.15574219 148.20472656 -52.56148437 147.65945312 -51.94921875 147.09765625 C-46.68017647 142.30389305 -41.30419771 137.70489415 -35.765625 133.2265625 C-31.59340169 129.80015113 -27.50974477 126.27383946 -23.43261719 122.73510742 C-16.45385909 116.70375053 -16.45385909 116.70375053 -13.84765625 116.875 C-11.07097963 118.03324127 -9.36924479 119.67967875 -7.1875 121.75 C-3.72890451 124.95651127 -0.23470189 128.0403149 3.4375 131 C10.5295577 136.73682254 17.37955804 142.75111208 24.25 148.75 C24.25 145.80429786 23.81262009 144.0947313 22.87304688 141.34204102 C22.5727356 140.45424454 22.27242432 139.56644806 21.9630127 138.65174866 C21.63490601 137.69546066 21.30679932 136.73917267 20.96875 135.75390625 C20.28509595 133.73114017 19.60150412 131.70835306 18.91796875 129.68554688 C17.83340363 126.4940726 16.74685703 123.30328553 15.65869141 120.11303711 C14.61114913 117.03668336 13.57089065 113.95793758 12.53125 110.87890625 C12.03908997 109.4475106 12.03908997 109.4475106 11.5369873 107.98719788 C11.23667603 107.09624924 10.93636475 106.2053006 10.62695312 105.28735352 C10.36047974 104.50586441 10.09400635 103.72437531 9.81945801 102.91920471 C9.25 100.75 9.25 100.75 9.25 96.75 C10.57250977 95.36889648 10.57250977 95.36889648 12.44140625 94.12109375 C13.14072266 93.64220703 13.84003906 93.16332031 14.56054688 92.66992188 C15.30369141 92.18072266 16.04683594 91.69152344 16.8125 91.1875 C25.12945815 85.57766087 33.13958851 79.69763509 41.25 73.75 C16.5 73.255 16.5 73.255 -8.75 72.75 C-3.75 68.75 -3.75 68.75 -1.64453125 67.1796875 C-0.95746094 66.66664062 -0.27039063 66.15359375 0.4375 65.625 C1.19305176 65.06087402 1.94860352 64.49674805 2.72705078 63.91552734 C5.32006175 61.849726 5.32006175 61.849726 7.1472168 59.20605469 C10.10737423 55.37000058 12.70649262 52.34780975 17.49655151 51.22198486 C23.94728493 50.4934563 30.40549616 50.83892983 36.875 51.125 C38.8527518 51.17522965 40.83062648 51.2208449 42.80859375 51.26171875 C47.62545986 51.37123163 52.43636215 51.54336517 57.25 51.75 C57.42128418 52.29414551 57.59256836 52.83829102 57.76904297 53.39892578 C58.55384622 55.89111327 59.33941716 58.38305815 60.125 60.875 C60.39441406 61.7309375 60.66382813 62.586875 60.94140625 63.46875 C62.07328904 67.05764665 63.21268892 70.63948799 64.41650391 74.20507812 C65.3440398 77.03713265 65.81369544 78.80731872 65.25 81.75 C63.0390625 83.96875 63.0390625 83.96875 59.875 86.25 C59.31079346 86.66362793 58.74658691 87.07725586 58.1652832 87.50341797 C56.9084213 88.42089186 55.64575828 89.33045396 54.37841797 90.23339844 C52.03422914 91.90374725 49.70611115 93.59513859 47.37890625 95.2890625 C43.01494864 98.46003898 38.6370167 101.6110203 34.25 104.75 C34.86846701 110.65813194 36.47801111 115.91207772 38.41015625 121.515625 C38.87415077 122.88844635 38.87415077 122.88844635 39.34751892 124.28900146 C40.3300838 127.19466083 41.320529 130.09753956 42.3125 133 C43.30747348 135.91692297 44.30060714 138.83441217 45.28819275 141.75384521 C45.90138233 143.56610925 46.51888702 145.37692016 47.14112854 147.18609619 C47.41819138 148.00414734 47.69525421 148.82219849 47.98071289 149.66503906 C48.22640518 150.38338928 48.47209747 151.1017395 48.72523499 151.84185791 C49.25 153.75 49.25 153.75 49.25 156.75 C47.34077433 158.28891481 45.48867068 159.6134063 43.4375 160.9375 C42.24231715 161.72870053 41.04832672 162.52170493 39.85546875 163.31640625 C39.25138184 163.71746582 38.64729492 164.11852539 38.02490234 164.53173828 C34.4522071 166.98397339 31.07717138 169.7167935 27.6875 172.4140625 C25.25 173.75 25.25 173.75 22.7265625 173.7109375 C19.68985236 172.53265565 17.97012477 171.00884927 15.625 168.75 C12.14924006 165.49500472 8.64044221 162.3697883 4.9375 159.375 C-1.37566637 154.26477221 -7.5634411 149.0120175 -13.75 143.75 C-17.89410278 145.45040581 -20.99393222 148.39140069 -24.3125 151.3125 C-25.56681122 152.40337612 -26.82202954 153.49321007 -28.078125 154.58203125 C-28.69880859 155.12037598 -29.31949219 155.6587207 -29.95898438 156.21337891 C-32.45598582 158.35570812 -35.0051622 160.43029017 -37.5625 162.5 C-42.42138347 166.44333718 -47.11344278 170.54847778 -51.75 174.75 C-56.14933953 173.28355349 -59.43059895 170.87100539 -63 168 C-68.09286537 163.98585451 -73.27297366 160.23152062 -78.75 156.75 C-76.87915346 150.07117477 -74.8461413 143.44329006 -72.8125 136.8125 C-72.46509766 135.67103516 -72.11769531 134.52957031 -71.75976562 133.35351562 C-69.93433462 127.40281683 -68.0131429 121.54846671 -65.75 115.75 C-64.31733062 111.90441378 -63.28773329 108.85956695 -63.75 104.75 C-65.28632036 102.93246347 -65.28632036 102.93246347 -67.484375 101.515625 C-68.28125732 100.94537598 -69.07813965 100.37512695 -69.89916992 99.78759766 C-71.18658081 98.90273682 -71.18658081 98.90273682 -72.5 98 C-74.24118278 96.76343944 -75.98206803 95.52645983 -77.72265625 94.2890625 C-78.57875488 93.68868164 -79.43485352 93.08830078 -80.31689453 92.46972656 C-83.57286614 90.16839564 -86.76075717 87.78391394 -89.9375 85.375 C-90.87980469 84.66601562 -91.82210937 83.95703125 -92.79296875 83.2265625 C-93.43878906 82.73929687 -94.08460937 82.25203125 -94.75 81.75 C-94.18170314 75.04883283 -92.43872667 69.15453331 -90.25 62.8125 C-89.92902344 61.85537109 -89.60804687 60.89824219 -89.27734375 59.91210938 C-86.89773261 52.89773261 -86.89773261 52.89773261 -85.75 51.75 C-84.16074694 51.67745828 -82.56824653 51.67470538 -80.97753906 51.69995117 C-79.95847473 51.71293747 -78.9394104 51.72592377 -77.88946533 51.73930359 C-76.21941437 51.76586784 -76.21941437 51.76586784 -74.515625 51.79296875 C-72.16276913 51.81538726 -69.80990389 51.83683929 -67.45703125 51.85742188 C-63.74437082 51.89428967 -60.03218961 51.93698109 -56.31982422 51.99682617 C-52.73919065 52.05187955 -49.15907979 52.0805815 -45.578125 52.10546875 C-44.48904846 52.12925095 -43.39997192 52.15303314 -42.27789307 52.17753601 C-30.96449829 52.21532063 -20.10973665 49.7333504 -11.75 41.75 C-7.40901365 37.35335998 -4.99188829 33.45914885 -4.4375 27.25 C-4.77075268 23.51756996 -5.4941322 21.69998097 -7.75 18.75 C-10.97056238 17.13971881 -14.2669099 17.15801235 -17.75 17.75 C-21.1845564 20.49764512 -21.67903419 22.20888571 -22.25 26.5625 C-22.07329385 30.61905868 -20.59884647 33.54972623 -18.52734375 36.98828125 C-17.75 38.75 -17.75 38.75 -18.75 41.75 C-21.26171875 43.35546875 -21.26171875 43.35546875 -24.4375 44.9375 C-25.47261719 45.46730469 -26.50773437 45.99710938 -27.57421875 46.54296875 C-30.88389137 47.8008886 -33.24411603 47.9865289 -36.75 47.75 C-42.46624532 38.41346598 -43.84872867 29.68006121 -42.75 18.75 C-40.66344576 11.71719442 -36.4414417 6.28630766 -30.75 1.75 C-29.94369141 1.09837891 -29.94369141 1.09837891 -29.12109375 0.43359375 C-21.27094484 -4.60665846 -8.19798019 -3.9758973 0 0 Z " fill="#FAFAFA" transform="translate(127.75,21.25)"/>
</svg>
